<?xml version="1.0" encoding="UTF-8"?>
<svg version="1.1" xmlns="http://www.w3.org/2000/svg" width="490" height="218">
<path d="M0 0 C161.7 0 323.4 0 490 0 C490 71.94 490 143.88 490 218 C328.3 218 166.6 218 0 218 C0 146.06 0 74.12 0 0 Z " fill="#FEFEFE" transform="translate(0,0)"/>
<path d="M0 0 C12.38406287 9.49676732 20.45393578 22.58190995 23 38 C23.25621861 41.17369885 23.28115087 44.31741951 23.25 47.5 C23.26160156 48.68529297 23.26160156 48.68529297 23.2734375 49.89453125 C23.24316106 59.1439825 21.17953551 66.53628298 16.75 74.625 C16.38003906 75.3365625 16.01007813 76.048125 15.62890625 76.78125 C8.30443209 90.43027011 -3.50316597 98.92909098 -18 104 C-18.78503906 104.31839844 -19.57007812 104.63679688 -20.37890625 104.96484375 C-32.74391161 109.5049557 -47.00879646 107.75612641 -59 103 C-62.78141556 101.17172125 -66.41842139 99.19280323 -70 97 C-70 96.01 -70 95.02 -70 94 C-69.34773438 93.72027344 -68.69546875 93.44054687 -68.0234375 93.15234375 C-58.9206999 88.97689922 -53.59513679 83.40266544 -50 74 C-49.09545904 70.22751276 -48.86488904 66.69061715 -48.82421875 62.81640625 C-48.80037109 61.64142578 -48.77652344 60.46644531 -48.75195312 59.25585938 C-48.70905561 56.7977017 -48.67776642 54.33931349 -48.65820312 51.88085938 C-48.39396464 40.66608631 -48.39396464 40.66608631 -44 36 C-39.97818385 33.31878924 -36.72763609 33.18655665 -32 34 C-28.9282282 35.71077974 -26.59514346 37.80971307 -25 41 C-24.88204512 42.83870837 -24.82105245 44.68122729 -24.7890625 46.5234375 C-24.76070313 47.626875 -24.73234375 48.7303125 -24.703125 49.8671875 C-24.65121917 52.19775913 -24.60689554 54.52851249 -24.5703125 56.859375 C-24.539375 57.96539062 -24.5084375 59.07140625 -24.4765625 60.2109375 C-24.4468335 61.73146729 -24.4468335 61.73146729 -24.41650391 63.28271484 C-23.93815757 66.40346201 -23.25639135 67.80523413 -21 70 C-16.9132388 70.58512555 -16.9132388 70.58512555 -13 70 C-10.39665555 67.90513548 -9.13846192 66.7192608 -8.49829102 63.39379883 C-8.50014404 62.42466553 -8.50199707 61.45553223 -8.50390625 60.45703125 C-8.50293945 58.84538086 -8.50293945 58.84538086 -8.50195312 57.20117188 C-8.52193359 56.08291016 -8.54191406 54.96464844 -8.5625 53.8125 C-8.55541016 52.71357422 -8.54832031 51.61464844 -8.54101562 50.48242188 C-8.61310685 41.18265434 -10.10003978 33.41709284 -16 26 C-22.36305128 19.78156352 -28.19384284 17.84837615 -36.875 17.5 C-44.49460817 17.68763489 -50.12822279 19.53923948 -55.83984375 24.64453125 C-63.1206785 32.53061877 -63.44592282 40.20933619 -63.5625 50.5625 C-63.5970945 52.95977089 -63.63978746 55.3569415 -63.69140625 57.75390625 C-63.70373291 58.80908447 -63.71605957 59.8642627 -63.72875977 60.95141602 C-64.33067304 67.71657453 -67.14358839 72.93955899 -71.75 77.875 C-75.14798585 79.57399293 -78.33087008 79.62453275 -82 79 C-88.0391399 76.0396373 -91.5555887 71.68035999 -93.9765625 65.51171875 C-98.33951961 50.77144776 -97.31620721 34.05799201 -90.3125 20.375 C-81.21120931 4.83348397 -68.30451306 -6.23326249 -50.6875 -10.875 C-32.13127404 -14.56415445 -15.16727373 -11.21579979 0 0 Z " fill="#024450" transform="translate(142,68)"/>
<path d="M0 0 C0.78052734 -0.01998047 1.56105469 -0.03996094 2.36523438 -0.06054688 C6.12044714 -0.05736179 8.34402935 0.17738056 11.67578125 2.02734375 C16.6612901 7.65085191 17.25292152 13.19561382 17.140625 20.3984375 C17.13875183 21.2296109 17.13687866 22.0607843 17.13494873 22.91714478 C17.12826534 24.6601365 17.11442552 26.40311418 17.09375 28.14599609 C17.06234957 30.82533566 17.05275004 33.50408767 17.046875 36.18359375 C17.03771391 37.88021558 17.02734101 39.57683139 17.015625 41.2734375 C17.00925018 42.47956192 17.00925018 42.47956192 17.00274658 43.71005249 C16.92972249 49.32027751 16.92972249 49.32027751 15.8125 50.4375 C14.14632885 50.47813832 12.47861905 50.480221 10.8125 50.4375 C10.3175 47.9625 10.3175 47.9625 9.8125 45.4375 C8.4821875 46.365625 8.4821875 46.365625 7.125 47.3125 C1.32862757 51.0309276 -3.3265724 52.35542856 -10.1875 51.4375 C-14.64515408 50.05920383 -17.31897303 47.78957872 -19.625 43.75 C-21.52701777 39.32842622 -22.05897015 35.1821708 -21.1875 30.4375 C-18.83412603 25.81791406 -15.53777614 21.60513611 -10.47265625 19.83984375 C-7.33814022 19.2879546 -4.30597569 19.30581025 -1.125 19.3125 C0.10347656 19.30992188 1.33195312 19.30734375 2.59765625 19.3046875 C5.8125 19.4375 5.8125 19.4375 8.8125 20.4375 C8.53038123 18.8108152 8.23647625 17.18617104 7.9375 15.5625 C7.77507812 14.65757813 7.61265625 13.75265625 7.4453125 12.8203125 C6.98205297 10.27244012 6.98205297 10.27244012 4.8125 8.4375 C-2.41381353 7.670902 -9.21386405 8.57786375 -16.1875 10.4375 C-16.5175 8.1275 -16.8475 5.8175 -17.1875 3.4375 C-11.25018074 0.88519742 -6.43926354 -0.05937292 0 0 Z " fill="#074854" transform="translate(273.1875,87.5625)"/>
<path d="M0 0 C4.66658693 2.6409285 8.35263793 6.64277586 10.75 11.4375 C10.83675538 14.13643181 10.86557897 16.80919231 10.84765625 19.5078125 C10.8462413 20.30404022 10.84482635 21.10026794 10.84336853 21.92062378 C10.83776345 24.4679538 10.82521014 27.01519647 10.8125 29.5625 C10.80748565 31.28775915 10.80292263 33.01301967 10.79882812 34.73828125 C10.78779237 38.97138791 10.77052436 43.20442914 10.75 47.4375 C7.78 47.4375 4.81 47.4375 1.75 47.4375 C1.74589111 46.46401611 1.74178223 45.49053223 1.73754883 44.48754883 C1.71571215 40.86217921 1.66137784 37.23788798 1.59741211 33.61303711 C1.57427118 32.04673631 1.55984552 30.48028078 1.55444336 28.91381836 C1.54512412 26.65641297 1.50407767 24.40142779 1.45703125 22.14453125 C1.4609639 21.44850296 1.46489655 20.75247467 1.46894836 20.03535461 C1.35334288 16.14925012 0.84414156 14.55109881 -1.66918945 11.51831055 C-5.41517277 8.49806499 -7.42939883 7.96489204 -12.25 8.4375 C-14.94990662 10.23743774 -16.7918865 11.521273 -18.25 14.4375 C-18.40626576 16.91582659 -18.50813198 19.37061331 -18.56640625 21.8515625 C-18.58718735 22.58120209 -18.60796844 23.31084167 -18.62937927 24.06259155 C-18.69481917 26.39579763 -18.75373368 28.72911721 -18.8125 31.0625 C-18.85569053 32.64324095 -18.89930499 34.22397039 -18.94335938 35.8046875 C-19.05049481 39.68217504 -19.15177782 43.55977685 -19.25 47.4375 C-22.55 47.4375 -25.85 47.4375 -29.25 47.4375 C-29.32457894 42.86600243 -29.37880276 38.29486491 -29.41479492 33.72290039 C-29.42981105 32.1701032 -29.45023028 30.61734791 -29.47631836 29.06469727 C-29.51302073 26.82297376 -29.52979787 24.58181461 -29.54296875 22.33984375 C-29.55845261 21.65413803 -29.57393646 20.96843231 -29.58988953 20.26194763 C-29.59206166 13.93366437 -28.03447788 9.4507571 -23.8125 4.6875 C-16.74486387 -1.51822928 -9.07991372 -4.09383393 0 0 Z " fill="#054652" transform="translate(224.25,89.5625)"/>
<path d="M0 0 C2.05078125 0.03255208 4.1015625 0.06510417 6.15234375 0.09765625 C6.16692627 0.9697876 6.18150879 1.84191895 6.1965332 2.74047852 C6.25791747 6.00425621 6.33212763 9.26723582 6.41479492 12.53051758 C6.44786369 13.93763405 6.47595079 15.34487741 6.4987793 16.75219727 C6.53266174 18.78586449 6.58498593 20.8183876 6.640625 22.8515625 C6.66680908 24.07174072 6.69299316 25.29191895 6.7199707 26.54907227 C7.22799205 30.71851907 8.21231937 33.38039674 10.15234375 37.09765625 C13.8252925 39.54628875 16.8850334 39.92949063 21.15234375 39.09765625 C24.3718902 36.56311968 25.8566681 34.9846832 27.15234375 31.09765625 C27.30379474 28.81508635 27.40121354 26.52877919 27.46875 24.2421875 C27.4895311 23.58055099 27.51031219 22.91891449 27.53172302 22.23722839 C27.59699102 20.12830773 27.65599719 18.0192649 27.71484375 15.91015625 C27.75805064 14.4785031 27.80166563 13.04686221 27.84570312 11.61523438 C27.95264881 8.10950471 28.05398016 4.60363839 28.15234375 1.09765625 C31.12234375 1.09765625 34.09234375 1.09765625 37.15234375 1.09765625 C37.2518912 5.79323272 37.32412842 10.48818288 37.37207031 15.18457031 C37.39207428 16.77908033 37.41928676 18.37351803 37.45410156 19.96777344 C37.84049769 38.1283913 37.84049769 38.1283913 31.73950195 44.59521484 C26.37032748 49.44595662 21.05521175 50.69839968 14.00390625 50.52734375 C8.2574045 49.66143253 4.17119519 46.74017197 0.66894531 42.15600586 C-3.88635434 34.07754998 -3.448925 26.00178087 -3.22265625 17.03515625 C-3.20611628 15.49937123 -3.19177676 13.96356087 -3.1796875 12.42773438 C-3.03090019 0.16019557 -3.03090019 0.16019557 0 0 Z " fill="#054652" transform="translate(342.84765625,87.90234375)"/>
<path d="M0 0 C2.3671875 1.0234375 2.3671875 1.0234375 4 2 C3.38722388 4.96175123 2.74627478 6.38058783 1 9 C-1.20703125 9.37109375 -1.20703125 9.37109375 -3.8125 9.4375 C-8.37820014 9.75419596 -10.77036344 10.56199979 -14 14 C-15.49622848 16.99245696 -15.21828326 20.09326174 -15.28125 23.37890625 C-15.29965942 24.10617416 -15.31806885 24.83344208 -15.33703613 25.58274841 C-15.41583133 28.70011489 -15.48360043 31.81769883 -15.55224609 34.93530273 C-15.60385632 37.20828322 -15.66114166 39.48107119 -15.71875 41.75390625 C-15.73232544 42.46430557 -15.74590088 43.1747049 -15.7598877 43.90663147 C-15.88717013 48.88717013 -15.88717013 48.88717013 -17 50 C-20.4375 50.1875 -20.4375 50.1875 -24 50 C-26 48 -26 48 -26.24723816 46.0198822 C-26.24581314 45.21015457 -26.24438812 44.40042694 -26.24291992 43.56616211 C-26.24599655 42.64858627 -26.24907318 41.73101044 -26.25224304 40.78562927 C-26.24505753 39.79289505 -26.23787201 38.80016083 -26.23046875 37.77734375 C-26.23001053 36.76152725 -26.22955231 35.74571075 -26.2290802 34.69911194 C-26.22605596 32.54964023 -26.21816456 30.40017075 -26.20581055 28.25073242 C-26.18755624 24.94767558 -26.1853008 21.64489888 -26.18554688 18.34179688 C-26.18063179 16.25781006 -26.17480351 14.17382515 -26.16796875 12.08984375 C-26.16629951 10.59770607 -26.16629951 10.59770607 -26.16459656 9.07542419 C-26.15821671 8.16100052 -26.15183685 7.24657684 -26.14526367 6.30444336 C-26.14145187 5.49551132 -26.13764008 4.68657928 -26.13371277 3.85313416 C-26 2 -26 2 -25 1 C-22.5625 0.75 -22.5625 0.75 -20 1 C-19.34 1.99 -18.68 2.98 -18 4 C-17.2575 3.34 -16.515 2.68 -15.75 2 C-11.07622928 -1.15311805 -5.40325371 -0.64718638 0 0 Z " fill="#094954" transform="translate(422,88)"/>
<path d="M0 0 C3.4375 0.1875 3.4375 0.1875 4.4375 1.1875 C4.53155142 3.1818173 4.55493249 5.17949543 4.55102539 7.17602539 C4.55094986 8.45727798 4.55087433 9.73853058 4.55079651 11.05860901 C4.54568909 12.46745848 4.54047309 13.87630756 4.53515625 15.28515625 C4.53329202 16.71862234 4.53186814 18.15208907 4.53086853 19.58555603 C4.52704372 23.36509957 4.51721377 27.1446049 4.50616455 30.9241333 C4.49594963 34.77819298 4.49137074 38.63225882 4.48632812 42.48632812 C4.47559146 50.05340287 4.45851549 57.62044609 4.4375 65.1875 C2.95843108 65.21439216 1.47922517 65.23384621 0 65.25 C-1.23556641 65.26740234 -1.23556641 65.26740234 -2.49609375 65.28515625 C-4.5625 65.1875 -4.5625 65.1875 -5.5625 64.1875 C-5.66695557 62.26532922 -5.70105137 60.33930181 -5.70776367 58.41430664 C-5.71414352 57.17955093 -5.72052338 55.94479523 -5.72709656 54.67262268 C-5.72862512 53.31430093 -5.72973914 51.95597866 -5.73046875 50.59765625 C-5.7336797 49.21382105 -5.73704365 47.8299862 -5.74055481 46.44615173 C-5.74655224 43.54164849 -5.74839409 40.63717502 -5.74780273 37.73266602 C-5.74770109 34.00547854 -5.76135272 30.27848147 -5.77857494 26.55133915 C-5.7896778 23.69208392 -5.79172247 20.83287497 -5.79119301 17.97360039 C-5.79237574 16.59924094 -5.79681388 15.22488039 -5.80452538 13.85054207 C-5.81428998 11.93041548 -5.81019215 10.01023338 -5.80541992 8.09008789 C-5.80684494 6.99612198 -5.80826996 5.90215607 -5.80973816 4.77503967 C-5.40338205 0.52220685 -4.15080254 0.21846329 0 0 Z " fill="#054652" transform="translate(316.5625,71.8125)"/>
<path d="M0 0 C0.721875 0.00257812 1.44375 0.00515625 2.1875 0.0078125 C2.909375 0.00523438 3.63125 0.00265625 4.375 0 C6.1875 0.1328125 6.1875 0.1328125 7.1875 1.1328125 C7.28572744 2.60086542 7.3154837 4.0735871 7.31689453 5.54492188 C7.32004669 6.48259399 7.32319885 7.42026611 7.32644653 8.38635254 C7.3244223 9.40612183 7.32239807 10.42589111 7.3203125 11.4765625 C7.32126923 12.51598999 7.32222595 13.55541748 7.32321167 14.62634277 C7.32389363 16.82885804 7.32203827 19.03137529 7.31787109 21.23388672 C7.31252308 24.61820969 7.31781559 28.00239994 7.32421875 31.38671875 C7.32355797 33.52083363 7.32227681 35.65494842 7.3203125 37.7890625 C7.32233673 38.80883179 7.32436096 39.82860107 7.32644653 40.87927246 C7.32329437 41.81694458 7.32014221 42.7546167 7.31689453 43.72070312 C7.31570114 44.96527283 7.31570114 44.96527283 7.31448364 46.23498535 C7.1875 48.1328125 7.1875 48.1328125 6.1875 49.1328125 C4.375 49.265625 4.375 49.265625 2.1875 49.2578125 C1.465625 49.26039063 0.74375 49.26296875 0 49.265625 C-1.8125 49.1328125 -1.8125 49.1328125 -2.8125 48.1328125 C-2.91072744 46.66475958 -2.9404837 45.1920379 -2.94189453 43.72070312 C-2.94662277 42.31419495 -2.94662277 42.31419495 -2.95144653 40.87927246 C-2.9494223 39.85950317 -2.94739807 38.83973389 -2.9453125 37.7890625 C-2.94626923 36.74963501 -2.94722595 35.71020752 -2.94821167 34.63928223 C-2.94889363 32.43676696 -2.94703827 30.23424971 -2.94287109 28.03173828 C-2.93752308 24.64741531 -2.94281559 21.26322506 -2.94921875 17.87890625 C-2.94855797 15.74479137 -2.94727681 13.61067658 -2.9453125 11.4765625 C-2.94733673 10.45679321 -2.94936096 9.43702393 -2.95144653 8.38635254 C-2.94829437 7.44868042 -2.94514221 6.5110083 -2.94189453 5.54492188 C-2.94109894 4.71520874 -2.94030334 3.88549561 -2.93948364 3.03063965 C-2.7707785 0.50926608 -2.52313091 0.18488459 0 0 Z " fill="#054652" transform="translate(442.8125,88.8671875)"/>
<path d="M0 0 C1.43859375 -0.02126953 1.43859375 -0.02126953 2.90625 -0.04296875 C5.5 0.1875 5.5 0.1875 8.5 2.1875 C9.27539399 5.58360547 9.18058352 8.77922349 8.5 12.1875 C6.38736203 15.05603596 3.67467507 16.60016247 0.5 18.1875 C-2.8858387 18.60040716 -6.11897902 18.66193359 -9.5 18.1875 C-12.88318343 15.52928445 -13.38402829 13.90910177 -14.0625 9.6875 C-13.35646305 5.29438118 -11.94402454 3.9106822 -8.5 1.1875 C-5.43301363 0.16517121 -3.21335122 0.0215951 0 0 Z " fill="#FBFCFC" transform="translate(273.5,112.8125)"/>
<path d="M0 0 C3.0625 0.3125 3.0625 0.3125 5 1.4375 C6.0625 3.3125 6.0625 3.3125 5.9375 6.375 C5.0625 9.3125 5.0625 9.3125 2.0625 11.3125 C-1.0625 11.0625 -1.0625 11.0625 -3.9375 10.3125 C-5.31875018 7.54999964 -5.12829306 5.36518901 -4.9375 2.3125 C-2.9375 0.3125 -2.9375 0.3125 0 0 Z " fill="#0A4A55" transform="translate(444.9375,70.6875)"/>
</svg>
